<?xml version="1.0" encoding="iso-8859-1"?>
<!-- Generator: Adobe Illustrator 19.0.0, SVG Export Plug-In . SVG Version: 6.00 Build 0)  -->
<svg version="1.1" id="Capa_1" xmlns="http://www.w3.org/2000/svg" xmlns:xlink="http://www.w3.org/1999/xlink" x="0px" y="0px"
	 viewBox="0 0 480 480" style="enable-background:new 0 0 480 480;" xml:space="preserve">
<g>
	<g>
		<g>
			<path d="M432,0H112C85.49,0,64,21.49,64,48v16H48C21.49,64,0,85.49,0,112v320c0,26.51,21.49,48,48,48h320c26.51,0,48-21.49,48-48
				v-16h16c26.51,0,48-21.49,48-48V48C480,21.49,458.51,0,432,0z M384,329.44l-68.64-68.64c-6.241-6.204-16.319-6.204-22.56,0
				L224,329.44l-68.64-68.64c-6.241-6.204-16.319-6.204-22.56,0L32,361.44V112c0-8.837,7.163-16,16-16h320c8.837,0,16,7.163,16,16
				V329.44z M448,368c0,8.837-7.163,16-16,16h-16V112c0-26.51-21.49-48-48-48H96V48c0-8.837,7.163-16,16-16h320
				c8.837,0,16,7.163,16,16V368z"/>
			<path d="M224,144c-26.51,0-48,21.49-48,48c0,26.51,21.49,48,48,48c26.51,0,48-21.49,48-48C272,165.49,250.51,144,224,144z
				 M224,208c-8.837,0-16-7.163-16-16s7.163-16,16-16s16,7.163,16,16S232.837,208,224,208z"/>
		</g>
	</g>
</g>
<g>
</g>
<g>
</g>
<g>
</g>
<g>
</g>
<g>
</g>
<g>
</g>
<g>
</g>
<g>
</g>
<g>
</g>
<g>
</g>
<g>
</g>
<g>
</g>
<g>
</g>
<g>
</g>
<g>
</g>
</svg>
